# xmcd
#
# Track frame offsets:
#	150
#	12447
#	22552
#	34680
#	48158
#	60083
#	74148
#	86673
#	97838
#	110463
#	123808
#	137370
#	151005
#	162370
#	177125
#	191361
#	206089
#	224956
#	238911
#	252438
#	274670
#
# Disc length: 3875 seconds
#
# Revision: 0
# Processed by: cddbd v1.5.2PL0 Copyright (c) Steve Scherf et al.
# Submitted via: dBpowerAMP V4.0
#
DISCID=170f2115
DTITLE=Various Artist - Blues In My Shoes
DYEAR=1999
DGENRE=Blues
TTITLE0=Penitentiary Blues, Pt.1 - Smokey Hogg
TTITLE1=Penitentiary Blues, Pt.2 - Smokey Hogg
TTITLE2=Crossroads - Texas Alexander
TTITLE3=Bottoms Blues - Texas Alexander
TTITLE4=You Gonna Need My Help Someday - Babe Kyro Lemon Turner
TTITLE5=Whiskey and Women - Babe Kyro Lemon Turner
TTITLE6=Howling Wolf - Willie Lane
TTITLE7=Too Many Women Blues - Willie Lane
TTITLE8=Prowling Ground Hog - Willie Lane
TTITLE9=War Is Starting Again - Lightnin' Hopkins
TTITLE10=Got Me Louisiana Woman - Lightnin' Hopkins
TTITLE11=All Through My Dreams - Lightnin' Hopkins and L.C. Williams
TTITLE12=Baton Rouge Rag - Buddy 'Lone Wolf' Woods
TTITLE13=Worried Blues - Smokey Hogg
TTITLE14=Evil Hearted Woman - Buddy 'Lone Wolf' Woods
TTITLE15=The Lone Wolf - Buddy 'Lone Wolf' Woods
TTITLE16=Look Out Your Window - Juke Boy Bonner
TTITLE17=Dust My Broom - Juke Boy Bonner
TTITLE18=Single Man Blues - Frankie Lee Sims
TTITLE19=Take It Easy Baby - Billy Bizer
TTITLE20=Gonna Get My Baby - Bruce Brooks
EXTD=
EXTT0=
EXTT1=
EXTT2=
EXTT3=
EXTT4=
EXTT5=
EXTT6=
EXTT7=
EXTT8=
EXTT9=
EXTT10=
EXTT11=
EXTT12=
EXTT13=
EXTT14=
EXTT15=
EXTT16=
EXTT17=
EXTT18=
EXTT19=
EXTT20=
PLAYORDER=
